<?xml version="1.0" encoding="UTF-8"?>
<svg id="uuid-432b774c-7010-467f-94af-cc661b99fd47" xmlns="http://www.w3.org/2000/svg" version="1.1" viewBox="0 0 250.8 77.2">
  <!-- Generator: Adobe Illustrator 29.5.1, SVG Export Plug-In . SVG Version: 2.1.0 Build 141)  -->
  <defs>
    <style>
      .st0 {
        fill: #fff;
      }
    </style>
  </defs>
  <path class="st0" d="M0,.9C0,.4.4,0,.9,0h30.6C33.6,0,35.4,0,37,.3s3.1.6,4.5,1.4c1.4.7,2.6,1.9,3.5,3.4.9,1.5,1.4,3.6,1.4,6.1s-.3,4-.9,5.4c-.6,1.4-1.4,2.4-2.2,3.1-.8.7-1.7,1.1-2.4,1.3s-1.3.3-1.7.3v.2c.8,0,1.6.1,2.5.3.9.2,1.9.6,2.8,1.3,1,.6,1.8,1.6,2.4,3,.7,1.4,1,3.1,1,5.3s-.4,4.9-1.2,6.6c-.8,1.6-1.9,2.9-3.4,3.7-1.5.8-3.1,1.3-5,1.6-1.9.3-4.2.4-6.9.4H.9c-.5,0-.9-.4-.9-.9V.9h0ZM13,16.3c0,.5.4.9.9.9h15.7c1,0,1.9-.3,2.5-1,.7-.7,1-1.6,1-2.8s-.3-1.9-1-2.6c-.7-.7-1.5-1-2.4-1h-15.9c-.5,0-.9.4-.9.9v5.6h0ZM13.2,32.5c0,.5.4.9.9.9h16.8c1.1,0,1.9-.3,2.6-.9.7-.6,1-1.6,1-2.9s-.3-1.9-1-2.6-1.5-1-2.6-1H14.1c-.5,0-.9.4-.9.9v5.6h0Z"/>
  <path class="st0" d="M92.1,34.3v8.3c0,.5-.4.9-.9.9h-39.9V0h40c.5,0,.9.4.9.9v8.3c0,.5-.4.9-.9.9h-25.4c-.5,0-.9.4-.9.9v5.5c0,.5.4.9.9.9h12.9c.5,0,.9.4.9.9v7c0,.5-.4.9-.9.9h-12.9c-.5,0-.9.4-.9.9v5.4c0,.5.4.9.9.9h25.4c.5,0,.9.4.9.9h0Z"/>
  <path class="st0" d="M107.6,43.4h-11c-.5,0-.9-.4-.9-.9V.9C95.7.4,96.1,0,96.6,0h17.3C114.2,0,114.5.2,114.7.4l22.4,31.9.2.6V.9C137.3.4,137.7,0,138.2,0h11C149.7,0,150.1.4,150.1.9v41.6c0,.5-.4.9-.9.9h-17.2c-.3,0-.6-.1-.8-.4l-22.7-32.2-.2-.4v32c0,.5-.4.9-.9.9h0Z"/>
  <path class="st0" d="M153.4,18.4v-6.3c0-4,1.1-7,3.5-9C159.2,1,162.8,0,167.6,0h29.6C197.7,0,198.1.4,198.1.9v8.9c0,.5-.4.9-.9.9h-28.1c-1.3,0-2.3.2-2.9.7-.6.4-.9,1-.9,1.7l-.2,3.6v10.3l.2,3.4c0,.8.3,1.5.9,1.9s1.6.7,2.9.7h28.1c.5,0,.9.4.9.9v8.7c0,.5-.4.9-.9.9h-29.6c-4.8,0-8.4-1-10.7-3s-3.5-5-3.5-9v-13.2h0Z"/>
  <path class="st0" d="M250.8,16.6v26.1c0,.5-.4.9-.9.9h-11.8c-.5,0-.9-.4-.9-.9v-14.4c0-.5-.4-.9-.9-.9h-20.3c-.5,0-.9.4-.9.9v14.4c0,.5-.4.9-.9.9h-11.8c-.5,0-.9-.4-.9-.9V.9C201.5.4,201.9,0,202.4,0h11.8C214.7,0,215.1.4,215.1.9v13.9c0,.5.4.9.9.9h33.9c.5,0,.9.4.9.9h0Z"/>
  <rect class="st0" x="237.2" y="0" width="13.6" height="13.6" rx=".9" ry=".9"/>
  <rect class="st0" x="219.4" y="0" width="13.6" height="13.6" rx=".9" ry=".9"/>
  <path class="st0" d="M12.6,52l-10.4,24.9H0l11.5-27.2h2.2l11.5,27.2h-2.2s-10.4-24.9-10.4-24.9Z"/>
  <path class="st0" d="M72,57.3c-.9-2.1-2.4-3.8-4.4-5s-4.5-1.9-7.3-1.9-4.7.5-6.7,1.5c-2,1-3.6,2.5-4.7,4.4s-1.7,4.1-1.7,6.7.6,4.8,1.7,6.7c1.2,1.9,2.7,3.4,4.7,4.4,2,1,4.2,1.5,6.7,1.5s4.5-.5,6.5-1.4,3.5-2.3,4.6-4.1c1.2-1.8,1.8-3.8,1.9-6.2h-14v-1.5h16v1.2c0,2.6-.8,4.9-2.1,7-1.3,2.1-3.1,3.7-5.3,4.8-2.3,1.2-4.8,1.8-7.6,1.8s-5.5-.6-7.8-1.8c-2.3-1.2-4.1-2.9-5.4-5-1.3-2.2-2-4.6-2-7.3s.7-5.2,2-7.4c1.3-2.2,3.1-3.8,5.4-5s4.9-1.8,7.8-1.8,6.3.8,8.7,2.2c2.4,1.5,4.2,3.6,5.4,6.2h-2.3,0Z"/>
  <path class="st0" d="M99.4,50.6v11.6h12.5v1.5h-12.5v11.7h13.8v1.5h-15.8v-27.9h15.8v1.5s-13.8,0-13.8,0Z"/>
  <path class="st0" d="M157.7,76.9h-2l-18.4-24.9v24.9h-2v-27.8h2l18.4,24.9v-24.9h2v27.8Z"/>
  <path class="st0" d="M181.8,55.7c1.3-2.2,3.1-3.8,5.4-5.1s4.8-1.8,7.6-1.8,6.6.7,9,2.2c2.4,1.5,4.2,3.6,5.4,6.2h-2.3c-.9-2.1-2.4-3.8-4.4-5s-4.6-1.8-7.6-1.8-4.6.5-6.6,1.5-3.5,2.5-4.6,4.4-1.7,4.2-1.7,6.7.6,4.8,1.7,6.6,2.7,3.4,4.6,4.4,4.1,1.6,6.6,1.6,5.5-.6,7.6-1.8c2.1-1.2,3.5-2.9,4.4-5h2.3c-1.1,2.7-2.9,4.8-5.4,6.2s-5.4,2.2-9,2.2-5.4-.6-7.6-1.8c-2.3-1.2-4.1-2.9-5.4-5-1.3-2.2-1.9-4.6-1.9-7.3s.6-5.2,1.9-7.4h0Z"/>
  <path class="st0" d="M250.8,49.1l-9.9,16.6v11.3h-2v-11.3l-9.9-16.6h2.3l8.6,14.9,8.6-14.9h2.3Z"/>
</svg>