<?xml version="1.0" encoding="UTF-8"?>
<svg id="uuid-432b774c-7010-467f-94af-cc661b99fd47" data-name="Calque 1" xmlns="http://www.w3.org/2000/svg" viewBox="0 0 250.8 77.22">
  <path d="M0,.91C0,.41.41,0,.91,0h30.58c2.07,0,3.9.09,5.49.28,1.59.19,3.11.64,4.55,1.36,1.44.72,2.62,1.85,3.52,3.38.9,1.53,1.36,3.56,1.36,6.07,0,2.22-.31,4.02-.94,5.41-.63,1.39-1.37,2.42-2.22,3.11-.85.68-1.65,1.13-2.39,1.33s-1.31.3-1.72.3v.17c.78,0,1.63.1,2.55.31.92.2,1.87.63,2.83,1.28.96.65,1.77,1.65,2.44,3.02.66,1.37,1,3.14,1,5.32,0,2.74-.4,4.93-1.19,6.57-.8,1.64-1.92,2.87-3.38,3.69-1.46.81-3.12,1.35-4.99,1.61-1.87.26-4.17.39-6.9.39H.91c-.51,0-.91-.41-.91-.91v-13.78s0-27.98,0-27.98ZM12.98,16.28c0,.51.41.91.91.91h15.72c1,0,1.85-.34,2.55-1.03.7-.68,1.05-1.62,1.05-2.8,0-1.03-.33-1.89-1-2.58-.67-.68-1.48-1.03-2.44-1.03h-15.88c-.51,0-.91.41-.91.91v5.6ZM13.2,32.52c0,.51.41.91.91.91h16.83c1.07,0,1.94-.3,2.61-.91.67-.61,1-1.58,1-2.91,0-1.07-.33-1.94-1-2.61-.67-.67-1.53-1-2.61-1H14.11c-.51,0-.91.41-.91.91v5.6Z" style="fill: #d1fe00;"/>
  <path d="M92.06,34.35v8.32c0,.51-.41.91-.91.91h-25.59s-13.42,0-13.42,0h-.94s0-43.59,0-43.59h.56s13.81,0,13.81,0h25.59c.51,0,.91.41.91.91v8.26c0,.51-.41.91-.91.91h-25.45c-.51,0-.91.41-.91.91v5.49c0,.51.41.91.91.91h12.94c.51,0,.91.41.91.91v6.99c0,.51-.41.91-.91.91h-12.94c-.51,0-.91.41-.91.91v5.38c0,.51.41.91.91.91h25.45c.51,0,.91.41.91.91Z" style="fill: #d1fe00;"/>
  <path d="M107.58,43.42h-10.98c-.51,0-.91-.41-.91-.91V.91c0-.51.41-.91.91-.91h17.32c.3,0,.58.15.75.39l22.43,31.94.22.56V.91c0-.51.41-.91.91-.91h10.98c.51,0,.91.41.91.91v41.59c0,.51-.41.91-.91.91h-17.16c-.3,0-.58-.14-.75-.39l-22.65-32.16-.17-.39v32.02c0,.51-.41.91-.91.91Z" style="fill: #d1fe00;"/>
  <path d="M153.43,18.35c0-4.07,0-6.15,0-6.27,0-3.99,1.15-7.01,3.47-9.04C159.2,1.02,162.76,0,167.57,0h29.64c.51,0,.91.41.91.91v8.87c0,.51-.41.91-.91.91h-28.14c-1.3,0-2.26.22-2.88.67-.63.44-.94,1-.94,1.66l-.17,3.6v10.31s.17,3.44.17,3.44c0,.81.3,1.46.91,1.94.61.48,1.58.72,2.91.72h28.14c.51,0,.91.41.91.91v8.71c0,.51-.41.91-.91.91h-29.64c-4.81,0-8.36-1.02-10.67-3.05-2.31-2.03-3.47-5.03-3.47-8.98,0-.15,0-2.25,0-6.32v-6.88Z" style="fill: #d1fe00;"/>
  <path d="M250.8,16.61v26.07c0,.51-.41.91-.91.91h-11.76c-.51,0-.91-.41-.91-.91v-14.42c0-.51-.41-.91-.91-.91h-20.29c-.51,0-.91.41-.91.91v14.42c0,.51-.41.91-.91.91h-11.76c-.51,0-.91-.41-.91-.91V.91c0-.51.41-.91.91-.91h11.76c.51,0,.91.41.91.91v13.87c0,.51.41.91.91.91h33.88c.51,0,.91.41.91.91Z" style="fill: #d1fe00;"/>
  <rect x="237.22" y="0" width="13.59" height="13.59" rx=".91" ry=".91" style="fill: #d1fe00;"/>
  <rect x="219.37" y="0" width="13.59" height="13.59" rx=".91" ry=".91" style="fill: #d1fe00;"/>
  <path d="M12.62,52.04l-10.43,24.9H0s11.5-27.24,11.5-27.24h2.23s11.46,27.24,11.46,27.24h-2.18s-10.39-24.9-10.39-24.9Z" style="fill: #d1fe00;"/>
  <path d="M72,57.29c-.89-2.09-2.37-3.76-4.44-5-2.07-1.24-4.51-1.87-7.33-1.87-2.47,0-4.7.52-6.69,1.55-1.99,1.03-3.57,2.5-4.73,4.41s-1.74,4.13-1.74,6.67c0,2.54.58,4.76,1.74,6.67,1.16,1.91,2.73,3.37,4.73,4.39,1.99,1.02,4.22,1.53,6.69,1.53,2.38,0,4.53-.48,6.46-1.43,1.93-.95,3.48-2.31,4.64-4.07,1.16-1.76,1.8-3.82,1.92-6.17h-13.95s0-1.51,0-1.51h16s0,1.19,0,1.19c-.09,2.59-.79,4.92-2.1,6.99-1.31,2.06-3.09,3.68-5.35,4.84-2.26,1.17-4.8,1.75-7.62,1.75-2.88,0-5.48-.6-7.8-1.81-2.32-1.2-4.13-2.88-5.44-5.04-1.31-2.16-1.96-4.6-1.96-7.33,0-2.75.65-5.21,1.96-7.37,1.31-2.16,3.12-3.84,5.44-5.04,2.32-1.2,4.92-1.81,7.8-1.81,3.36,0,6.26.75,8.72,2.24,2.45,1.5,4.24,3.57,5.37,6.21h-2.32Z" style="fill: #d1fe00;"/>
  <path d="M99.41,50.58v11.63s12.48,0,12.48,0v1.51s-12.48,0-12.48,0v11.71s13.82,0,13.82,0v1.51s-15.83,0-15.83,0v-27.87s15.83,0,15.83,0v1.51s-13.82,0-13.82,0Z" style="fill: #d1fe00;"/>
  <path d="M157.72,76.94h-2.01s-18.37-24.94-18.37-24.94v24.94s-2.01,0-2.01,0v-27.83s2.01,0,2.01,0l18.37,24.86v-24.86s2.01,0,2.01,0v27.83Z" style="fill: #d1fe00;"/>
  <path d="M181.82,55.68c1.29-2.16,3.08-3.84,5.35-5.06,2.27-1.22,4.82-1.83,7.65-1.83,3.57,0,6.57.74,9,2.22,2.44,1.48,4.22,3.56,5.35,6.23h-2.32c-.89-2.12-2.37-3.79-4.44-5.02-2.07-1.23-4.6-1.85-7.6-1.85-2.41,0-4.59.51-6.55,1.53-1.96,1.02-3.51,2.49-4.64,4.41-1.13,1.92-1.69,4.16-1.69,6.73,0,2.54.56,4.76,1.69,6.65,1.13,1.89,2.68,3.36,4.64,4.39,1.96,1.03,4.15,1.55,6.55,1.55,3,0,5.53-.62,7.6-1.85,2.07-1.23,3.54-2.9,4.44-5.02h2.32c-1.13,2.67-2.91,4.75-5.35,6.23-2.44,1.48-5.44,2.22-9,2.22-2.82,0-5.37-.6-7.65-1.81-2.27-1.2-4.06-2.88-5.35-5.04-1.29-2.16-1.94-4.6-1.94-7.33,0-2.75.65-5.21,1.94-7.37Z" style="fill: #d1fe00;"/>
  <path d="M250.8,49.07l-9.85,16.6v11.28s-2.01,0-2.01,0v-11.28s-9.94-16.6-9.94-16.6h2.27s8.65,14.93,8.65,14.93l8.6-14.93h2.27Z" style="fill: #d1fe00;"/>
</svg>