<?xml version="1.0" encoding="UTF-8"?>
<svg id="uuid-3fe3e975-bbe4-4508-8047-6b9aac004f78" data-name="Calque 1" xmlns="http://www.w3.org/2000/svg" viewBox="0 0 423.41 374.39">
  <path d="M423.41,142.64v223.9c0,4.34-3.52,7.86-7.85,7.86h-100.99c-4.34,0-7.86-3.52-7.86-7.85v-123.86c0-4.34-3.52-7.86-7.86-7.86H124.55c-4.34,0-7.86,3.52-7.86,7.86v123.86c0,4.34-3.52,7.86-7.85,7.86H7.86c-4.34,0-7.86-3.52-7.86-7.85V7.86C0,3.52,3.52,0,7.86,0h100.99c4.34,0,7.86,3.52,7.86,7.85v119.1c0,4.34,3.52,7.86,7.86,7.86l291-.02c4.34,0,7.86,3.52,7.86,7.86Z" style="fill: #d1fe00;"/>
  <rect x="306.71" y="0" width="116.7" height="116.7" rx="7.86" ry="7.86" style="fill: #d1fe00;"/>
  <rect x="153.35" y="0" width="116.7" height="116.7" rx="7.86" ry="7.86" style="fill: #d1fe00;"/>
</svg>